<svg xmlns="http://www.w3.org/2000/svg" version="1.1" xmlns:xlink="http://www.w3.org/1999/xlink" width="763.6px" height="399.3px"><svg version="1.1" id="SvgjsSvg1002" xmlns:x="&amp;ns_extend;" xmlns:i="&amp;ns_ai;" xmlns:graph="&amp;ns_graphs;" xmlns="http://www.w3.org/2000/svg" xmlns:xlink="http://www.w3.org/1999/xlink" x="0px" y="0px" width="763.6px" height="399.3px" viewBox="0 0 763.6 399.3" style="enable-background:new 0 0 763.6 399.3;" xml:space="preserve">
<style type="text/css">
	.st0{fill:#008060;}
	.st1{fill:#E84E0F;}
</style>
<metadata>
	<sfw xmlns="&amp;ns_sfw;">
		<slices></slices>
		<slicesourcebounds bottomleftorigin="true" height="399.3" width="763.6" x="43.4" y="-624.9"></slicesourcebounds>
	</sfw>
</metadata>
<g>
	<g>
		<path class="st0" d="M96.2,88.9v42h58.3v29H96.2v57.6H60.3V59.9h100.3v29H96.2z"></path>
		<path class="st0" d="M255.6,178h-52.2l-15.3,39.5h-36.7l60.9-157.6h35.4l63.2,157.6h-39.7L255.6,178z M213.1,149.5h32.6
			l-16.6-53.2L213.1,149.5z"></path>
		<path class="st0" d="M377.1,59.9c44.6,0,67,17.6,67,47.4c0,22.7-11.5,36.7-29.5,44.8l39,65.4h-43.5l-30-57.6
			c-5.1,0.3-10.2,0.5-15.5,0.5v57h-35.9V59.9H377.1z M364.3,131.7c24.7,0,41.5-5.6,41.5-23.4c0-12-9.4-19.4-28.5-19.4h-13V131.7z"></path>
		<path class="st0" d="M539.3,165v52.5h-35.9v-50.7l-56.3-107h40l35.1,71.3l35.4-71.3h37.2L539.3,165z"></path>
		<path class="st0" d="M645,220.6c-20.6,0-40.2-5.3-54.5-11.5l9.4-32.1c20.4,9.4,33.9,14,45.6,14c11.7,0,20.6-4.6,20.6-15
			c0-29.3-70-21.1-70-75.4c0-32.3,25.7-43.8,55.5-43.8c13,0,28.3,2.3,45.1,7.4l-7.6,30c-14.8-5.6-27.8-8.1-37.2-8.1
			c-11.7,0-19.9,3.8-19.9,12.7c0,26,71.3,19.4,71.3,75.4C703.3,210.1,673.8,220.6,645,220.6z"></path>
	</g>
	<g>
		<g>
			<path class="st0" d="M206.9,291.3h-11.8v-38.1h11.4c12.3,0,15.1,5,15.1,10.1c0,3.4-1.9,5.9-4.6,7.1c3.9,1.4,6.7,4.7,6.7,9.5
				C223.8,289.1,216.6,291.3,206.9,291.3z M206.3,260.1h-2.5v8.2h2.4c5.1,0,6.3-2.2,6.3-4.4C212.5,261.7,211,260.1,206.3,260.1z
				 M207,274.7h-3.3v9.7h4.1c3.6,0,6.6-1.2,6.6-4.9S210.7,274.7,207,274.7z"></path>
			<path class="st0" d="M250.5,281.8h-12.6l-3.7,9.5h-8.9l14.7-38.1h8.5l15.3,38.1h-9.6L250.5,281.8z M240.2,274.9h7.9l-4-12.9
				L240.2,274.9z"></path>
			<path class="st0" d="M299.6,277.3c0,7.3-4.7,14.7-16.5,14.7c-11.6,0-15.3-7.4-15.3-14.5v-24.3h8.7v22.5c0,4.2,1.4,8.8,7.4,8.8
				c6,0,7.1-4.6,7.1-8.9v-22.5h8.7V277.3z"></path>
			<path class="st0" d="M305.8,291.3l-1.2-5.8l18.8-25.2h-17.7v-7h27.9l1.4,5.4l-19,25.6h19.1v7.1H305.8z"></path>
			<path class="st0" d="M340.9,291.3v-38.1h25.2v7h-16.5v8h14.9v7h-14.9v9h17.5v7H340.9z"></path>
			<path class="st0" d="M401.7,291.3l-19-23.3v23.3h-8.4v-38.1h6.4l19.1,22.9v-22.9h8.4v38.1H401.7z"></path>
			<path class="st0" d="M432.6,260.2v31.1h-8.7v-31.1h-12.1v-7h33v7H432.6z"></path>
			<path class="st0" d="M460.2,253.2c10.8,0,16.2,4.2,16.2,11.4c0,5.5-2.8,8.9-7.1,10.8l9.4,15.8h-10.5l-7.3-13.9
				c-1.2,0.1-2.5,0.1-3.8,0.1v13.8h-8.7v-38.1H460.2z M457.2,270.6c6,0,10-1.4,10-5.7c0-2.9-2.3-4.7-6.9-4.7h-3.1V270.6z"></path>
			<path class="st0" d="M516.2,277.3c0,7.3-4.7,14.7-16.5,14.7c-11.6,0-15.3-7.4-15.3-14.5v-24.3h8.7v22.5c0,4.2,1.4,8.8,7.4,8.8
				c6,0,7.1-4.6,7.1-8.9v-22.5h8.7V277.3z"></path>
			<path class="st0" d="M559.3,291.3l-1.5-21.9l-10.3,21.9H544l-10.3-21.8l-1.6,21.8H524l3-38.1h7.8l11.2,23.6l11.1-23.6h7.8
				l3.2,38.1H559.3z"></path>
		</g>
		<rect x="85.7" y="267.4" class="st0" width="91.1" height="8.3"></rect>
		<rect x="586.8" y="267.4" class="st0" width="91.1" height="8.3"></rect>
	</g>
	<path class="st0" d="M698.8,0h-634C29,0,0,29,0,64.8v209.7c0,35.8,29,64.8,64.8,64.8h634c35.8,0,64.8-29,64.8-64.8V64.8
		C763.6,29,734.6,0,698.8,0z M739.6,274.5c0,22.5-18.3,40.8-40.8,40.8h-634C42.3,315.3,24,297,24,274.5V64.8
		C24,42.3,42.3,24,64.8,24h634c22.5,0,40.8,18.3,40.8,40.8V274.5z"></path>
</g>
<g>
	<path class="st1" d="M113.6,398.8h-9.1V367h8.7c9.8,0,12,4.1,12,8.2c0,3.2-1.8,5.4-4.3,6.2c3.6,0.9,6.1,4,6.1,8
		C127.1,396.8,121.7,398.8,113.6,398.8z M113.1,371.6h-2.8v8.5h2.5c5.1,0,6.3-2.1,6.3-4.5C119.1,373.4,117.8,371.6,113.1,371.6z
		 M113.5,384.4h-3.2v9.8h4c3.8,0,6.6-1.2,6.6-4.9C120.9,385.4,117.1,384.4,113.5,384.4z"></path>
	<path class="st1" d="M149.4,390.1H138l-3.2,8.6h-6l12.1-31.7h5.8l12.5,31.7h-6.5L149.4,390.1z M139.6,385.5h8.1l-4.2-12.5
		L139.6,385.5z"></path>
	<path class="st1" d="M188.5,387.3c0,6-3.5,12-13,12c-9.4,0-12.3-6.1-12.3-11.9V367h5.8v19.2c0,4.1,1.5,8.1,7,8.1
		c5.6,0,6.8-4.2,6.8-8.1V367h5.8V387.3z"></path>
	<path class="st1" d="M197.7,398.8V367h20v4.7h-14.3v8.3h12.8v4.7h-12.8v9.3h15.1v4.7H197.7z"></path>
	<path class="st1" d="M248.2,398.8L230.9,377v21.8h-5.6V367h4.3l17.2,21.5V367h5.6v31.7H248.2z"></path>
	<path class="st1" d="M314.6,398.8h-4.2l-8.8-22.2l-8.7,22.2h-4.2l-7.2-31.7h6.1l4.5,21.9l7.9-21.9h4l8,21.9l4.4-21.9h5.6
		L314.6,398.8z"></path>
	<path class="st1" d="M339.6,399.3c-11.8,0-14.7-8.9-14.7-15.9c0-7.5,3.7-17,15.4-17c11.1,0,14.8,8.5,14.8,15.9
		C355,390.2,351.6,399.3,339.6,399.3z M340,371.1c-7.3,0-9.1,6.5-9.1,12.1c0,5.8,2.1,11.4,8.8,11.4c6.8,0,9.2-5.8,9.2-12
		C349,377.1,347.1,371.1,340,371.1z"></path>
	<path class="st1" d="M382.1,398.8v-14.2h-14.2v14.2h-5.8V367h5.8v12.8h14.2V367h5.9v31.7H382.1z"></path>
	<path class="st1" d="M420.3,398.8L403,377v21.8h-5.6V367h4.3l17.2,21.5V367h5.6v31.7H420.3z"></path>
	<path class="st1" d="M434.1,398.8V367h20v4.7h-14.3v8.3h12.8v4.7h-12.8v9.3H455v4.7H434.1z"></path>
	<path class="st1" d="M484.6,398.8L467.3,377v21.8h-5.6V367h4.3l17.2,21.5V367h5.6v31.7H484.6z"></path>
	<path class="st1" d="M522,398.8V367h5.8v26.8h14.3v4.9H522z"></path>
	<path class="st1" d="M547.6,398.8V367h20v4.7h-14.3v8.3h12.8v4.7h-12.8v9.3h15.1v4.7H547.6z"></path>
	<path class="st1" d="M584.3,398.8h-9.1V367h8.7c9.8,0,12,4.1,12,8.2c0,3.2-1.8,5.4-4.3,6.2c3.6,0.9,6.1,4,6.1,8
		C597.8,396.8,592.3,398.8,584.3,398.8z M583.8,371.6H581v8.5h2.5c5.1,0,6.3-2.1,6.3-4.5C589.8,373.4,588.5,371.6,583.8,371.6z
		 M584.2,384.4H581v9.8h4c3.8,0,6.6-1.2,6.6-4.9C591.6,385.4,587.8,384.4,584.2,384.4z"></path>
	<path class="st1" d="M604.3,398.8V367h20v4.7h-14.3v8.3h12.8v4.7h-12.8v9.3h15.1v4.7H604.3z"></path>
	<path class="st1" d="M654.8,398.8L637.5,377v21.8H632V367h4.3l17.2,21.5V367h5.6v31.7H654.8z"></path>
</g>
</svg><style>@media (prefers-color-scheme: light) { :root { filter: none; } }
@media (prefers-color-scheme: dark) { :root { filter: none; } }
</style></svg>